<svg width="621" height="557" viewBox="0 0 621 557" fill="none" xmlns="http://www.w3.org/2000/svg">
<g clip-path="url(#clip0)">
<path d="M505.755 268.829C505.755 276.655 505.446 284.403 504.827 292.071C504.34 298.057 503.674 303.989 502.832 309.867C501.936 316.091 500.838 322.24 499.539 328.314V328.321C498.689 332.318 497.756 336.283 496.74 340.215C493.791 351.646 490.124 362.854 485.762 373.763C484.814 376.136 483.835 378.493 482.825 380.834C479.004 389.698 474.726 398.331 470.01 406.694C456.784 430.18 440.275 451.39 421.048 469.596C418.967 471.563 416.858 473.498 414.719 475.4C369.324 515.714 312.029 537.754 252.878 537.657C113.215 537.657 0 417.3 0 268.829C0 120.357 113.215 -9.42817e-05 252.878 -9.42817e-05C309.992 -0.0958303 365.439 20.456 410.116 58.2811C412.21 60.0453 414.278 61.8491 416.32 63.6927C426.282 72.6745 435.579 82.4577 444.13 92.9558H444.136C483.961 141.758 505.846 204.222 505.755 268.829V268.829Z" fill="#F2F2F2"/>
<path d="M74.649 315.265C50.5594 300.024 32.3776 271.538 34.738 241.843C56.7618 264.251 85.5316 277.656 115.957 279.685C127.694 280.423 140.82 279.944 149.459 288.421C154.835 293.696 157.338 301.637 157.748 309.401C158.158 317.166 156.695 324.89 155.24 332.511L155.741 334.378C127.707 334.49 98.7386 330.507 74.649 315.265Z" fill="#E6E6E6"/>
<path d="M35.3256 241.811C44.9777 264.243 61.033 282.872 81.2112 295.051C85.5491 297.632 90.1608 299.849 95.0616 300.878C99.8458 301.841 104.785 301.425 109.367 299.673C113.67 298.13 117.904 296.022 122.484 295.618C127.313 295.193 131.783 297.173 135.295 300.642C139.592 304.885 142.198 310.517 144.567 316.119C147.197 322.339 149.836 328.844 154.879 333.317C155.49 333.859 154.663 334.835 154.053 334.294C145.28 326.512 143.848 313.479 136.835 304.314C133.562 300.037 129.058 296.783 123.707 296.869C119.027 296.944 114.66 299.114 110.316 300.716C105.754 302.398 101.185 303.188 96.3692 302.448C91.443 301.691 86.7401 299.661 82.3591 297.209C72.4639 291.569 63.4642 284.311 55.6898 275.7C46.7656 265.925 39.4801 254.599 34.1487 242.212C33.819 241.445 34.998 241.049 35.3256 241.811H35.3256Z" fill="white"/>
<path d="M74.4968 291.536C72.1151 294.857 68.7002 297.171 64.8621 298.063C61.024 298.955 57.0126 298.368 53.5442 296.406C52.8437 296.006 53.3948 294.83 54.0962 295.23C57.3228 297.063 61.0595 297.61 64.6319 296.772C68.2044 295.933 71.3772 293.765 73.5778 290.658C74.0568 289.983 74.973 290.865 74.4968 291.536L74.4968 291.536Z" fill="white"/>
<path d="M107.283 300.76C106.28 292.289 102.311 284.531 96.1671 279.033C95.558 278.489 96.3845 277.512 96.9929 278.056C103.377 283.79 107.491 291.873 108.516 300.69C108.613 301.531 107.379 301.596 107.283 300.76V300.76Z" fill="white"/>
<path d="M48.2979 265.308C49.4713 264.227 50.3738 262.853 50.9244 261.31C51.4749 259.766 51.6562 258.102 51.4519 256.465C51.3448 255.627 52.5793 255.562 52.6857 256.395C52.9034 258.204 52.7011 260.043 52.0964 261.749C51.4918 263.456 50.5031 264.98 49.2169 266.186C49.1046 266.311 48.9519 266.385 48.7899 266.395C48.6278 266.404 48.4686 266.347 48.3445 266.236C48.2233 266.119 48.1505 265.956 48.1418 265.782C48.133 265.609 48.1891 265.438 48.2979 265.308V265.308Z" fill="white"/>
<path d="M112.714 184.312C112.795 184.834 112.876 185.356 112.966 185.882C114.088 192.891 115.744 199.791 117.916 206.514C118.077 207.037 118.246 207.564 118.42 208.08C123.818 224.219 131.987 239.152 142.512 252.121C146.705 257.277 151.261 262.087 156.14 266.509C162.878 272.615 170.642 278.665 174.962 286.549C175.422 287.366 175.833 288.213 176.194 289.084L157.844 333.584C157.755 333.663 157.675 333.746 157.585 333.826L156.929 335.638C156.662 335.429 156.39 335.205 156.123 334.996C155.968 334.875 155.817 334.745 155.662 334.624C155.56 334.54 155.458 334.456 155.361 334.387C155.327 334.359 155.293 334.331 155.269 334.308C155.172 334.238 155.089 334.163 155.002 334.098C153.477 332.855 151.957 331.598 150.443 330.328C150.433 330.323 150.433 330.323 150.428 330.309C138.914 320.597 128.061 309.779 119.098 297.553C118.829 297.185 118.549 296.813 118.288 296.425C114.277 290.89 110.698 285.016 107.587 278.862C105.893 275.486 104.362 272.021 102.998 268.481C99.4909 259.325 97.3601 249.641 96.6838 239.781C95.3385 220.127 99.9209 200.234 111.797 185.434C112.101 185.055 112.401 184.686 112.714 184.312Z" fill="#E6E6E6"/>
<path d="M113.204 184.66C108.207 208.748 110.476 233.898 119.689 256.538C121.691 261.375 124.118 266.097 127.448 270.055C130.722 273.886 134.902 276.716 139.553 278.249C143.862 279.772 148.436 280.798 152.322 283.408C156.419 286.158 158.866 290.6 159.706 295.618C160.733 301.756 159.625 307.921 158.343 313.91C156.921 320.56 155.344 327.443 156.837 334.242C157.018 335.065 155.805 335.316 155.624 334.493C153.027 322.664 159.264 311.342 158.855 299.535C158.665 294.026 156.911 288.545 152.59 285.188C148.811 282.253 144.095 281.19 139.719 279.689C135.125 278.113 131.029 275.819 127.603 272.146C124.098 268.388 121.493 263.757 119.384 258.995C114.677 248.159 111.602 236.604 110.271 224.753C108.682 211.236 109.279 197.529 112.038 184.226C112.209 183.403 113.374 183.842 113.204 184.66V184.66Z" fill="white"/>
<path d="M116.319 249.434C112.536 250.561 108.499 250.223 104.93 248.478C101.36 246.734 98.4895 243.698 96.8313 239.911C96.4983 239.144 97.6043 238.558 97.9378 239.326C99.4758 242.855 102.15 245.683 105.477 247.3C108.804 248.917 112.566 249.217 116.082 248.144C116.847 247.912 117.079 249.203 116.319 249.434H116.319Z" fill="white"/>
<path d="M137.272 277.783C141.269 270.378 142.494 261.643 140.702 253.321C140.524 252.496 141.737 252.246 141.915 253.069C143.764 261.734 142.473 270.821 138.297 278.517C137.899 279.25 136.876 278.513 137.272 277.783Z" fill="white"/>
<path d="M110.254 211.724C111.804 211.612 113.302 211.093 114.616 210.212C115.93 209.332 117.017 208.119 117.781 206.682C118.17 205.944 119.193 206.682 118.806 207.416C117.955 209 116.752 210.338 115.303 211.314C113.854 212.289 112.201 212.873 110.491 213.013C110.331 213.041 110.167 213.003 110.032 212.906C109.897 212.81 109.802 212.663 109.766 212.494C109.736 212.324 109.77 212.147 109.861 212.003C109.953 211.858 110.094 211.758 110.254 211.724V211.724Z" fill="white"/>
<path d="M175.17 62.3066L206.122 447.482L144.219 452.43V67.2072C151.596 62.0184 162.184 61.2066 175.17 62.3066Z" fill="#CCCCCC"/>
<path d="M327.951 62.3066L297 447.482L358.902 452.43V67.2072C351.526 62.0184 340.937 61.2066 327.951 62.3066Z" fill="#CCCCCC"/>
<path d="M349.633 468.35H152.83C149.674 468.346 146.648 467.012 144.417 464.639C142.185 462.267 140.93 459.051 140.927 455.696V72.8601C140.93 69.5053 142.186 66.289 144.417 63.9168C146.648 61.5446 149.674 60.2103 152.83 60.2064H349.633C352.789 60.2103 355.815 61.5446 358.046 63.9168C360.277 66.289 361.533 69.5053 361.536 72.8601V455.696C361.533 459.051 360.278 462.267 358.046 464.639C355.815 467.012 352.789 468.346 349.633 468.35V468.35ZM152.83 64.4069C150.721 64.4094 148.7 65.3008 147.21 66.8855C145.719 68.4703 144.88 70.6189 144.878 72.8601V455.696C144.88 457.937 145.719 460.086 147.21 461.671C148.7 463.255 150.721 464.147 152.83 464.15H349.633C351.742 464.147 353.763 463.255 355.254 461.671C356.744 460.086 357.583 457.937 357.585 455.696V72.8601C357.583 70.6189 356.744 68.4703 355.253 66.8855C353.763 65.3008 351.742 64.4094 349.633 64.4069L152.83 64.4069Z" fill="#CCCCCC"/>
<path d="M359.561 123.913H142.902V128.114H359.561V123.913Z" fill="#CCCCCC"/>
<path d="M359.561 193.921H142.902V198.121H359.561V193.921Z" fill="#CCCCCC"/>
<path d="M213.21 62.3066H209.259V253.427H213.21V62.3066Z" fill="#CCCCCC"/>
<path d="M293.204 62.3066H289.253V253.427H293.204V62.3066Z" fill="#CCCCCC"/>
<path d="M384.256 479.901H124.793C120.077 479.901 115.554 477.91 112.22 474.365C108.885 470.82 107.012 466.012 107.012 460.999C107.012 455.986 108.885 451.178 112.22 447.633C115.554 444.089 120.077 442.097 124.793 442.097H384.256C388.972 442.097 393.494 444.089 396.829 447.633C400.163 451.178 402.036 455.986 402.036 460.999C402.036 466.012 400.163 470.82 396.829 474.365C393.494 477.91 388.972 479.901 384.256 479.901V479.901Z" fill="#CCCCCC"/>
<path d="M359.56 243.626H144.219V257.627H359.56V243.626Z" fill="#CCCCCC"/>
<path d="M213.823 288.186L213.55 288.046C198.87 280.507 179.647 280.514 151.217 288.071L150.914 288.151L150.823 287.833C147.815 277.35 144.409 265.476 150.809 259.635C150.898 242.493 165.042 228.574 182.415 228.574C199.785 228.574 213.927 242.486 214.022 259.623C223.543 267.362 219.005 278.797 213.977 287.908L213.823 288.186Z" fill="#2F2E41"/>
<path d="M304.05 251.481C303.787 252.87 303.24 254.181 302.449 255.321C301.658 256.461 300.641 257.403 299.47 258.08C298.3 258.758 297.003 259.154 295.673 259.241C294.343 259.328 293.011 259.104 291.771 258.585L239.893 314.006L235.264 296.797L286.788 245.331C287.747 243.174 289.417 241.466 291.481 240.531C293.546 239.595 295.861 239.497 297.989 240.255C300.116 241.014 301.909 242.575 303.026 244.644C304.143 246.713 304.507 249.145 304.05 251.481L304.05 251.481Z" fill="#FFB6B6"/>
<path d="M175.834 304.835C175.834 304.835 171.128 316.174 182.741 323.167C194.355 330.159 234.945 320.498 241.532 319.149C248.118 317.8 272.717 278.666 272.717 278.666L269.238 259.473L236.614 289.58L175.834 304.835Z" fill="#6C63FF"/>
<path d="M167.268 367.539L167.927 380.841C167.927 380.841 165.983 392.623 167.582 395.166C169.168 397.696 212.461 398.015 212.461 398.015C212.461 398.015 215.322 381.622 217.786 367.273L167.268 367.539Z" fill="#FFB6B6"/>
<path d="M291.741 543.413L300.791 541.469L298.201 502.605L284.843 505.474L291.741 543.413Z" fill="#FFB6B6"/>
<path d="M304.705 492.837L313.119 488.815L302.204 451.63L289.785 457.567L304.705 492.837Z" fill="#FFB6B6"/>
<path d="M312.034 471.885L296.191 481.422L257.119 414.675C229.69 434.32 202.868 443.728 175.829 448.748C166.687 450.478 157.367 449.601 155.612 439.71C155.53 439.247 155.464 438.782 155.415 438.315C154.336 427.511 166.978 413.662 168.585 400.443L203.185 398.235L207.452 404.05L247.465 377.898C255.512 372.639 266.096 375.483 271.104 384.252C271.369 384.715 271.614 385.189 271.841 385.675L312.034 471.885Z" fill="#2F2E41"/>
<path d="M302.338 516.786L284.209 518.577L251.34 447.113C218.745 453.072 187.995 454.981 161.398 447.772C152.392 445.365 146.888 435.48 149.103 425.693C149.206 425.236 149.326 424.783 149.462 424.336C152.645 414.011 160.978 406.706 167.542 395.35L215.495 396.124L210.139 415.77L256.721 409.362C266.089 408.073 274.645 415.281 275.831 425.462C275.893 426 275.934 426.539 275.953 427.081L302.338 516.786Z" fill="#2F2E41"/>
<path d="M185.992 278.026C196.745 278.026 205.463 268.758 205.463 257.326C205.463 245.894 196.745 236.627 185.992 236.627C175.238 236.627 166.52 245.894 166.52 257.326C166.52 268.758 175.238 278.026 185.992 278.026Z" fill="#FFB6B6"/>
<path d="M174.577 285.498L192.43 287.731C193.183 287.826 193.889 288.167 194.451 288.708C195.013 289.25 195.402 289.964 195.564 290.751L198.403 304.563L216.102 326.721C216.102 326.721 222.458 339.389 220.074 353.747C217.691 368.104 216.644 378.773 216.644 378.773C216.644 378.773 169.166 397.697 167.577 395.163C165.988 392.63 165.472 381.121 165.472 381.121L159.117 305.954C159.117 305.954 166.267 293.286 170.239 293.286C172.803 293.194 172.474 287.06 174.577 285.498Z" fill="#6C63FF"/>
<path d="M217.126 383.394C219.63 383.394 221.659 380.805 221.659 377.611C221.659 374.417 219.63 371.828 217.126 371.828C214.623 371.828 212.593 374.417 212.593 377.611C212.593 380.805 214.623 383.394 217.126 383.394Z" fill="#6C63FF"/>
<path d="M287.249 533.406L301.048 526.055L303.649 532.505L321.097 536.254C321.959 536.439 322.743 536.912 323.334 537.604C323.925 538.296 324.292 539.171 324.382 540.101C324.473 541.031 324.281 541.967 323.835 542.773C323.39 543.578 322.713 544.211 321.905 544.58L305.046 552.262L299.568 547.206L301.005 554.103L294.649 557L287.249 533.406Z" fill="#2F2E41"/>
<path d="M300.756 489.743L314.431 482.135L317.138 488.535L334.646 491.958C335.511 492.127 336.302 492.585 336.905 493.266C337.507 493.947 337.889 494.815 337.994 495.743C338.1 496.671 337.924 497.61 337.491 498.424C337.059 499.238 336.394 499.884 335.592 500.267L318.862 508.264L313.301 503.311L314.853 510.18L308.545 513.195L300.756 489.743Z" fill="#2F2E41"/>
<path d="M174.867 250.833C169.723 250.842 164.702 249.158 160.494 246.013L160.354 245.908V245.726C160.359 240.436 162.338 235.365 165.857 231.624C169.375 227.884 174.146 225.78 179.122 225.774H187.024C192 225.78 196.771 227.884 200.289 231.624C203.808 235.365 205.787 240.436 205.792 245.726C205.787 246.937 205.338 248.097 204.539 248.961C203.741 249.824 202.657 250.322 201.518 250.349L175.311 250.829C175.163 250.832 175.015 250.833 174.867 250.833Z" fill="#2F2E41"/>
<path d="M207.11 241.894C209.629 240.348 210.05 236.108 208.05 232.425C206.05 228.742 202.385 227.009 199.866 228.556C197.346 230.103 196.925 234.342 198.925 238.025C200.926 241.709 204.59 243.441 207.11 241.894Z" fill="#2F2E41"/>
<path d="M167.701 237.785C170.53 234.778 171.155 230.567 169.098 228.38C167.04 226.192 163.079 226.857 160.25 229.865C157.421 232.872 156.796 237.083 158.853 239.27C160.911 241.457 164.872 240.792 167.701 237.785Z" fill="#2F2E41"/>
<path d="M340.027 427.046H320.592C320.154 427.044 319.72 427.145 319.322 427.341C318.924 427.536 318.572 427.822 318.288 428.178C317.571 428.038 316.834 428.08 316.135 428.302C315.437 428.524 314.798 428.919 314.271 429.454C313.744 429.99 313.344 430.65 313.104 431.382C312.863 432.113 312.79 432.895 312.889 433.662C312.988 434.43 313.257 435.162 313.673 435.798C314.09 436.433 314.642 436.955 315.285 437.32C315.928 437.685 316.643 437.882 317.372 437.896C318.101 437.91 318.822 437.74 319.477 437.4L321.089 442.968C321.28 443.628 321.665 444.206 322.188 444.616C322.71 445.026 323.342 445.247 323.992 445.247H336.628C337.277 445.247 337.91 445.026 338.432 444.616C338.954 444.206 339.339 443.628 339.53 442.968L342.93 431.223C343.07 430.741 343.101 430.23 343.021 429.732C342.941 429.234 342.752 428.762 342.47 428.356C342.188 427.95 341.82 427.619 341.395 427.392C340.971 427.164 340.503 427.046 340.027 427.046V427.046ZM317.468 436.497C316.595 436.497 315.758 436.128 315.14 435.471C314.523 434.815 314.176 433.925 314.176 432.996C314.176 432.068 314.523 431.177 315.14 430.521C315.758 429.865 316.595 429.496 317.468 429.496C317.528 429.496 317.584 429.511 317.644 429.515C317.513 430.078 317.529 430.669 317.69 431.223L319.081 436.029C318.591 436.332 318.035 436.493 317.468 436.497V436.497Z" fill="#3F3D56"/>
<path d="M253.242 411.849C251.914 411.979 250.576 411.799 249.322 411.32C248.067 410.841 246.927 410.076 245.981 409.078C245.035 408.08 244.306 406.874 243.845 405.544C243.385 404.214 243.205 402.793 243.317 401.382L178.492 364.451L192.671 354.8L253.831 392.505C256.049 392.863 258.067 394.073 259.503 395.907C260.938 397.741 261.691 400.071 261.618 402.455C261.545 404.839 260.653 407.113 259.109 408.844C257.565 410.575 255.477 411.644 253.242 411.849V411.849Z" fill="#FFB6B6"/>
<path d="M168.376 296.584C168.376 296.584 156.808 295.044 153.839 308.878C150.87 322.711 171.222 361.276 174.327 367.596C177.432 373.916 219.754 387.739 219.754 387.739L236.051 378.69L199.561 354.105L168.376 296.584Z" fill="#6C63FF"/>
<path d="M249.914 239.426H253.866C255.787 239.426 257.629 240.237 258.988 241.681C260.346 243.125 261.109 245.084 261.109 247.126H242.67C242.67 245.084 243.434 243.125 244.792 241.681C246.151 240.237 247.993 239.426 249.914 239.426V239.426Z" fill="#CCCCCC"/>
<path d="M124.622 95.7461C146.241 95.7461 163.767 77.115 163.767 54.1324C163.767 31.1497 146.241 12.5186 124.622 12.5186C103.003 12.5186 85.4778 31.1497 85.4778 54.1324C85.4778 77.115 103.003 95.7461 124.622 95.7461Z" fill="#FF6584"/>
<path d="M244.474 51.9637C234.114 40.4107 222.083 29.8714 207.84 24.302C203.872 22.7441 199.758 21.6451 195.569 21.0241C195.536 21.0192 195.504 21.0264 195.47 21.0235C195.402 21.0049 195.333 20.9905 195.263 20.9804C189.405 20.1869 183.458 20.5686 177.732 22.1055C174.931 22.8526 172.2 23.8643 169.569 25.1286C166.929 26.4978 164.371 28.039 161.909 29.7433C156.699 33.0587 150.963 35.3337 144.983 36.456C141.982 37.0304 138.942 37.3476 135.892 37.4045C133.246 37.4609 130.751 37.5586 128.245 38.5748C125.567 39.6453 123.161 41.3663 121.22 43.6005C119.279 45.8347 117.857 48.5202 117.065 51.4429C117.004 51.7031 117.023 51.9773 117.118 52.2257C117.213 52.4742 117.38 52.684 117.594 52.8251C118.273 53.3414 118.934 53.9271 119.646 54.3871C120.28 54.6955 120.957 54.8918 121.65 54.9682C122.783 55.2223 123.917 55.4689 125.053 55.7082C129.236 56.5894 133.437 57.3694 137.655 58.0483C146.191 59.4219 154.772 60.3895 163.4 60.9511C180.684 62.064 198.027 61.5099 215.217 59.2955C224.878 58.0516 234.473 56.2873 243.966 54.0094C244.158 53.9497 244.332 53.8382 244.472 53.6857C244.612 53.5332 244.712 53.3449 244.763 53.1391C244.814 52.9333 244.815 52.7169 244.764 52.511C244.713 52.305 244.613 52.1165 244.474 51.9637V51.9637Z" fill="#E6E6E6"/>
<path d="M126.48 79.7871C122.513 78.2291 118.399 77.1301 114.21 76.5091C114.176 76.5042 114.144 76.5114 114.111 76.5085C114.043 76.4899 113.974 76.4755 113.904 76.4654C108.045 75.6719 102.099 76.0536 96.3723 77.5905C93.5721 78.3376 90.8402 79.3493 88.2094 80.6136C85.5693 81.9828 83.0112 83.524 80.5498 85.2283C75.3397 88.5437 69.6034 90.8187 63.6237 91.941C60.6222 92.5154 57.5822 92.8326 54.5329 92.8895C51.8871 92.9459 49.3919 93.0436 46.8852 94.0598C44.2074 95.1302 41.8021 96.8512 39.8611 99.0854C37.9201 101.32 36.4972 104.005 35.706 106.928C35.645 107.188 35.6633 107.462 35.7584 107.711C35.8535 107.959 36.0204 108.169 36.2351 108.31C36.9132 108.826 37.5742 109.412 38.2867 109.872C38.9205 110.18 39.5974 110.377 40.2907 110.453C41.4234 110.707 42.5575 110.954 43.6931 111.193C47.8767 112.074 52.0776 112.854 56.2959 113.533C64.8314 114.907 73.4131 115.874 82.0409 116.436C99.3248 117.549 116.668 116.995 133.858 114.78C143.519 113.536 153.114 111.772 162.606 109.494C162.799 109.435 162.973 109.323 163.113 109.171C163.252 109.018 163.353 108.83 163.404 108.624C163.455 108.418 163.455 108.202 163.404 107.996C163.354 107.79 163.254 107.601 163.114 107.449C152.755 95.8957 140.723 85.3564 126.48 79.7871Z" fill="#E6E6E6"/>
<path d="M408.768 390.011L378.665 347.971L354.913 362.248L405.246 425.788L408.768 390.011Z" fill="#3F3D56"/>
<path d="M478.11 321.67C478.779 339.288 481.346 356.767 485.762 373.763C484.814 376.136 483.835 378.493 482.825 380.834C479.004 389.698 474.726 398.331 470.01 406.694C456.784 430.18 440.275 451.389 421.048 469.596C418.967 471.563 416.858 473.498 414.72 475.4C402.53 457.534 395.951 437.82 393.35 417.531C393.021 414.955 392.751 412.351 392.547 409.761V409.747C392.047 403.452 391.887 397.131 392.066 390.817C392.073 390.313 392.086 389.802 392.105 389.29C392.336 382.542 392.909 375.779 393.772 369.079V369.072C393.87 368.302 393.969 367.532 394.081 366.762C394.397 364.452 394.753 362.142 395.141 359.845C397.403 346.602 400.558 333.549 404.585 320.788V320.781C404.697 320.41 404.809 320.046 404.934 319.682C405.368 318.296 405.81 316.924 406.264 315.552C406.292 315.444 406.327 315.339 406.369 315.237C406.955 313.444 407.555 311.666 408.167 309.902C408.332 309.412 408.503 308.922 408.681 308.432C409.372 306.465 410.077 304.511 410.795 302.586C411.019 301.97 411.249 301.354 411.48 300.745C411.657 300.276 411.829 299.807 412.013 299.345V299.338C413.06 296.587 414.12 293.889 415.194 291.245C418.203 283.81 421.298 276.817 424.314 270.369L424.321 270.362C436.84 243.668 448.219 226.334 448.219 226.334L490.952 241.036C485.855 250.648 481.91 264.824 479.75 281.549C478.086 294.842 477.537 308.267 478.11 321.663L478.11 321.67Z" fill="#3F3D56"/>
<path d="M407.087 317.393C406.837 316.77 406.554 316.161 406.264 315.552C404.762 312.46 402.828 309.627 400.528 307.151C400.186 306.78 399.83 306.409 399.461 306.059C395.495 302.175 390.671 299.416 385.436 298.038C380.201 296.661 374.724 296.708 369.511 298.176L369.485 298.19L369.287 298.246L369.333 298.484C369.531 299.593 369.817 300.682 370.189 301.739C370.288 302.026 370.4 302.299 370.512 302.572C370.558 302.698 370.617 302.81 370.67 302.936C370.67 302.936 370.663 302.943 370.677 302.943C370.677 302.95 370.683 302.957 370.683 302.964C370.808 303.223 370.927 303.489 371.059 303.741C370.789 303.468 370.532 303.188 370.282 302.901C370.038 302.635 369.814 302.355 369.59 302.075C368.823 301.124 368.129 300.108 367.516 299.037L367.41 298.848L367.226 298.925C364.741 299.84 362.37 301.075 360.166 302.6L359.929 302.768C358.247 303.943 356.351 304.728 354.364 305.073C352.378 305.418 350.345 305.315 348.398 304.771C345.329 303.929 342.129 303.776 339.002 304.319C335.874 304.863 332.887 306.092 330.229 307.928C328.469 309.148 326.878 310.623 325.501 312.31C325.382 312.457 325.264 312.611 325.145 312.758C324.895 313.08 324.658 313.409 324.428 313.745C321.952 317.263 320.433 321.435 320.035 325.808L320.022 325.969L320.147 326.06C322.375 327.683 324.895 328.799 327.549 329.336C325.882 329.584 324.194 329.628 322.518 329.469H322.511C321.751 329.402 320.995 329.29 320.246 329.133L320.108 329.105H320.101L319.93 329.07L319.956 329.406C320.153 333.684 321.419 337.828 323.624 341.412L323.69 341.511C323.714 341.546 323.736 341.584 323.756 341.622C324.69 343.142 325.467 344.763 326.074 346.46C327.614 350.676 327.953 355.28 327.049 359.698C326.026 364.425 326.366 369.369 328.024 373.887C329.683 378.405 332.583 382.287 336.347 385.027C339.654 387.445 343.507 388.883 347.509 389.193C348.056 389.242 348.609 389.27 349.162 389.27C352.329 389.28 355.463 388.586 358.362 387.232L358.467 387.19L358.494 387.064C359.051 385.151 359.834 383.321 360.825 381.618C360.501 382.96 360.337 384.341 360.338 385.727V386.189L360.713 385.958C361.036 385.755 361.365 385.538 361.661 385.335C363.44 384.1 365.051 382.612 366.449 380.911C366.995 380.239 367.549 379.588 368.128 378.936L368.135 378.929C369.261 377.655 370.453 376.409 371.691 375.219C374.325 372.704 377.143 370.417 380.12 368.379C383.095 366.349 386.204 364.552 389.425 363.003H389.432C389.794 362.821 390.163 362.646 390.525 362.478C392.129 361.735 393.673 360.855 395.141 359.845C395.194 359.81 395.24 359.782 395.286 359.747C401.652 355.316 406.332 348.627 408.493 340.871C410.654 333.115 410.156 324.795 407.087 317.393L407.087 317.393Z" fill="#6C63FF"/>
<path opacity="0.15" d="M-30.8736 307.911C-28.2427 306.068 -25.2834 304.835 -22.1844 304.289C-19.0854 303.744 -15.9146 303.899 -12.8743 304.743C-10.9441 305.291 -8.92805 305.396 -6.95758 305.051C-4.98712 304.706 -3.10648 303.919 -1.43824 302.74L-1.20258 302.573C0.979862 301.041 3.32855 299.801 5.79117 298.882L5.97918 298.812L6.08197 298.994C7.05573 300.724 8.23547 302.31 9.59125 303.712C8.76766 302.063 8.19093 300.285 7.88227 298.444L7.83784 298.201L8.0606 298.137C12.9071 296.759 17.9882 296.632 22.8893 297.765C27.7905 298.899 32.3728 301.262 36.2624 304.661C40.152 308.06 43.2387 312.399 45.2707 317.324C47.3027 322.249 48.2223 327.62 47.9546 333C46.9266 328.614 45.0989 324.491 42.5772 320.87C40.0556 317.248 36.8903 314.201 33.2646 311.904C29.639 309.607 25.6252 308.106 21.4558 307.488C17.2864 306.87 13.0443 307.147 8.97531 308.304L8.7526 308.367L8.79698 308.61C9.10564 310.451 9.68237 312.229 10.506 313.878C9.15018 312.476 7.97044 310.89 6.99668 309.161L6.89389 308.978L6.70588 309.048C4.24325 309.967 1.89457 311.207 -0.287866 312.739L-0.523526 312.906C-2.19177 314.085 -4.07241 314.872 -6.04287 315.217C-8.01334 315.562 -10.0294 315.457 -11.9596 314.909C-17.0128 313.5 -22.3645 314.018 -27.102 316.375C-31.8395 318.732 -35.6695 322.782 -37.939 327.834C-38.9494 327.313 -39.9289 326.724 -40.8721 326.073L-41 325.986L-40.9849 325.825C-40.6601 322.214 -39.5824 318.729 -37.8319 315.627C-36.0814 312.526 -33.7031 309.888 -30.8736 307.911V307.911Z" fill="black"/>
<path d="M575.218 128.842L574.592 128.401L574.138 129.031C570.621 133.738 567.823 139.004 565.847 144.635C566.12 138.148 567.187 131.725 569.021 125.53L569.219 124.879L568.652 124.536C561.284 120.101 553.433 116.64 545.274 114.231L544.385 113.979C538.132 112.155 532.311 108.951 527.301 104.574C522.292 100.198 518.206 94.7482 515.311 88.5804C508.583 74.4253 497.954 62.7881 484.843 55.2217C471.731 47.6553 456.761 44.5196 441.93 46.2329H441.924C441.766 46.2469 441.601 46.2679 441.443 46.2889C441.173 46.3169 440.909 46.3519 440.646 46.3869C440.106 46.4639 439.579 46.541 439.052 46.625C438.605 46.695 438.15 46.772 437.702 46.856C437.465 46.891 437.235 46.933 437.004 46.982C436.774 47.024 436.537 47.066 436.306 47.115H436.3C431.878 48.0041 427.544 49.3283 423.353 51.0704H423.346V51.0774L422.286 51.5184C421.193 51.9945 420.109 52.4986 419.033 53.0306C418.789 53.1496 418.552 53.2756 418.309 53.3946C418.243 53.4296 418.17 53.4647 418.104 53.5067C417.413 53.8567 416.728 54.2207 416.05 54.6058C415.951 54.6548 415.852 54.7108 415.753 54.7668L415.121 55.1238C413.732 55.9219 412.366 56.769 411.025 57.6651C410.913 57.7351 410.808 57.8051 410.696 57.8821C410.577 57.9661 410.452 58.0501 410.334 58.1342C410.261 58.1762 410.189 58.2322 410.116 58.2812C409.912 58.4142 409.715 58.5542 409.517 58.7012C409.122 58.9742 408.727 59.2543 408.338 59.5413C407.937 59.8283 407.541 60.1294 407.146 60.4304L406.751 60.7314L406.824 61.2495C406.89 61.6765 406.949 62.1036 407.021 62.5236C407.087 62.9437 407.153 63.3567 407.225 63.7698C407.337 64.4628 407.462 65.1489 407.588 65.814C407.673 66.255 407.752 66.6891 407.844 67.1161C407.93 67.5572 408.022 67.9982 408.121 68.4393C408.312 69.3494 408.516 70.2314 408.733 71.0995C408.839 71.5336 408.951 71.9676 409.069 72.3947C409.135 72.6537 409.201 72.9127 409.273 73.1648C409.326 73.3398 409.379 73.5148 409.431 73.6898C409.445 73.7458 409.458 73.8088 409.478 73.8718C409.492 73.9311 409.51 73.9896 409.53 74.0468C409.603 74.3059 409.675 74.5579 409.748 74.8029C409.787 74.9359 409.827 75.069 409.873 75.195C409.965 75.496 410.064 75.804 410.162 76.0981C410.268 76.4341 410.38 76.7701 410.492 77.0992C410.518 77.1832 410.544 77.2602 410.571 77.3442C410.591 77.4072 410.61 77.4702 410.637 77.5332C410.663 77.6032 410.689 77.6802 410.716 77.7502C410.828 78.0653 410.94 78.3873 411.058 78.7024C411.098 78.8144 411.137 78.9334 411.183 79.0454C412.251 81.8974 413.562 84.6392 415.101 87.2363C413.396 85.6821 411.754 84.0346 410.176 82.2937C407.739 79.602 405.494 76.7215 403.459 73.6758C403.294 73.4378 403.129 73.1928 402.978 72.9477C402.668 72.4787 402.365 72.0096 402.069 71.5336C401.753 71.0435 401.45 70.5325 401.154 70.0284C400.956 69.6924 400.759 69.3493 400.568 69.0133C400.377 68.6913 400.199 68.3762 400.028 68.0542L399.514 67.1161H399.507V67.1231L398.783 67.8792C398.493 68.1802 398.204 68.4813 397.92 68.7823C389.069 78.2495 382.658 89.9783 379.304 102.841L379.205 103.226L379.106 103.625C378.915 104.339 378.724 105.032 378.52 105.739V105.746C378.322 106.446 378.112 107.146 377.888 107.832C377.684 108.483 377.473 109.128 377.249 109.772C377.176 109.989 377.097 110.206 377.012 110.423C376.874 110.843 376.722 111.256 376.571 111.676C376.498 111.865 376.426 112.061 376.353 112.25C376.175 112.712 375.998 113.174 375.82 113.629C375.794 113.699 375.761 113.776 375.728 113.846C375.675 113.986 375.616 114.126 375.563 114.259C375.425 114.595 375.28 114.938 375.142 115.274C375.043 115.491 374.951 115.715 374.858 115.932C374.819 116.03 374.773 116.128 374.733 116.226C374.49 116.786 374.239 117.339 373.976 117.886C373.68 118.53 373.377 119.174 373.054 119.804C372.771 120.392 372.474 120.966 372.165 121.54C371.632 122.555 371.072 123.563 370.492 124.543C370.268 124.921 370.045 125.299 369.814 125.677C369.761 125.768 369.709 125.859 369.656 125.943C369.465 126.272 369.267 126.587 369.063 126.909C368.925 127.127 368.787 127.344 368.648 127.554C368.418 127.932 368.174 128.296 367.924 128.653C367.858 128.765 367.786 128.87 367.713 128.975C367.345 129.521 366.976 130.053 366.6 130.585C366.587 130.592 366.587 130.599 366.581 130.606C366.567 130.606 366.567 130.613 366.561 130.62C366.396 130.851 366.232 131.082 366.06 131.306C365.836 131.635 365.593 131.957 365.349 132.272C364.954 132.804 364.539 133.343 364.118 133.868C364.105 133.882 364.098 133.896 364.085 133.903C361.903 136.629 359.539 139.183 357.012 141.548C356.966 141.59 356.933 141.632 356.887 141.667C356.531 141.996 356.176 142.325 355.807 142.647C355.656 142.78 355.504 142.913 355.353 143.046C355.102 143.27 354.845 143.494 354.595 143.697C354.566 143.729 354.533 143.758 354.496 143.781C354.273 143.977 354.055 144.159 353.831 144.341C353.561 144.572 353.291 144.789 353.015 145.006C351.711 146.057 350.372 147.048 348.998 147.982C348.794 148.129 348.576 148.276 348.366 148.416C348.24 148.5 348.115 148.584 347.997 148.654C347.496 148.983 346.996 149.305 346.495 149.613C345.995 149.928 345.481 150.229 344.974 150.523C343.887 151.153 342.814 151.811 341.767 152.497C341.24 152.847 340.713 153.197 340.193 153.554C338.125 154.983 336.134 156.511 334.22 158.14C332.306 159.77 330.471 161.501 328.721 163.327C328.504 163.551 328.287 163.782 328.069 164.02C327.635 164.475 327.213 164.938 326.812 165.4C326.166 166.107 325.547 166.835 324.935 167.57C321.705 171.465 318.847 175.691 316.4 180.185C315.172 182.429 314.055 184.74 313.055 187.109C312.298 188.88 311.606 190.693 310.98 192.527C310.566 193.753 310.177 194.989 309.815 196.238C309.637 196.861 309.466 197.491 309.301 198.121C308.741 200.256 308.274 202.413 307.892 204.576C307.582 206.312 307.332 208.05 307.141 209.791C307.042 210.666 306.963 211.541 306.891 212.41C306.721 214.543 306.635 216.679 306.631 218.817C306.619 225.23 307.353 231.621 308.814 237.843C309.137 239.215 309.494 240.581 309.887 241.939C310.085 242.618 310.296 243.29 310.506 243.962C311.04 245.642 311.63 247.306 312.278 248.953C312.666 249.941 313.075 250.921 313.503 251.894C316.223 258.08 319.695 263.861 323.828 269.088C324.507 269.949 325.207 270.796 325.929 271.629C325.936 271.629 325.929 271.636 325.929 271.636C327.721 273.714 329.618 275.686 331.612 277.545H331.619C332.416 278.294 333.226 279.019 334.049 279.722C334.056 279.715 334.056 279.722 334.056 279.722C334.885 280.436 335.722 281.122 336.578 281.787C337.006 282.116 337.44 282.445 337.882 282.774C338.744 283.425 339.625 284.053 340.522 284.657H340.529C341.425 285.273 342.333 285.861 343.255 286.421C345.106 287.549 347.002 288.606 348.952 289.565L349.281 289.726L349.617 289.565C352.742 288.07 355.964 286.813 359.258 285.805C359.982 285.581 360.713 285.378 361.437 285.182C363.268 284.699 365.112 284.293 366.969 283.964C365.16 284.929 363.413 286.021 361.74 287.234C360.443 288.165 359.165 289.18 357.881 290.3C357.453 290.671 357.025 291.056 356.597 291.448L355.53 292.428L356.867 292.897C357.355 293.065 357.842 293.233 358.329 293.387C358.994 293.611 359.653 293.814 360.298 294.003C361.707 294.423 363.125 294.794 364.552 295.116C364.901 295.193 365.244 295.27 365.593 295.347C366.271 295.487 366.956 295.628 367.641 295.753C367.669 295.761 367.698 295.766 367.726 295.767C368.438 295.893 369.156 296.012 369.867 296.118C371.19 296.321 372.514 296.482 373.838 296.601C373.983 296.622 374.127 296.629 374.279 296.636C374.602 296.664 374.918 296.692 375.24 296.713C375.952 296.762 376.669 296.797 377.387 296.825C377.44 296.825 377.486 296.832 377.539 296.832C377.901 296.846 378.263 296.86 378.625 296.867C378.625 296.867 378.625 296.874 378.632 296.867C378.994 296.874 379.356 296.881 379.718 296.881H381.72C382.096 296.881 382.471 296.888 382.853 296.888C383.38 296.888 383.913 296.895 384.44 296.902C384.578 296.902 384.723 296.909 384.868 296.909C385.711 296.923 386.554 296.944 387.397 296.965C387.45 296.965 387.502 296.972 387.555 296.972C388.398 297 389.241 297.028 390.084 297.07C390.268 297.077 390.453 297.084 390.644 297.098C391.454 297.133 392.264 297.175 393.074 297.224C393.304 297.238 393.541 297.259 393.778 297.273C394.391 297.308 395.01 297.35 395.622 297.399C395.984 297.42 396.34 297.448 396.702 297.483C398.164 297.602 399.619 297.735 401.081 297.889C401.569 297.931 402.056 297.987 402.543 298.043C403.847 298.19 405.155 298.351 406.468 298.526C407.054 298.596 407.64 298.68 408.226 298.764C408.292 298.771 408.358 298.778 408.424 298.792C409.148 298.897 409.866 299.002 410.591 299.114C411.065 299.184 411.539 299.261 412.013 299.338C412.5 299.415 412.988 299.492 413.475 299.583C413.738 299.625 414.002 299.674 414.272 299.723C414.904 299.828 415.543 299.94 416.182 300.066C416.239 300.072 416.296 300.081 416.353 300.094C417.709 300.346 419.073 300.612 420.429 300.899C421.226 301.06 422.016 301.228 422.806 301.403C423.425 301.536 424.044 301.676 424.663 301.816C424.769 301.837 424.874 301.865 424.98 301.893C425.003 301.901 425.027 301.905 425.052 301.907C425.987 302.124 426.929 302.348 427.864 302.586C431.111 303.384 434.353 304.271 437.591 305.246C438.335 305.464 439.079 305.695 439.823 305.926C440.139 306.024 440.449 306.122 440.758 306.22C441.403 306.423 442.042 306.626 442.688 306.843C443.254 307.025 443.827 307.214 444.393 307.41C444.749 307.529 445.104 307.648 445.46 307.774C446.013 307.956 446.566 308.145 447.113 308.348C447.581 308.502 448.041 308.663 448.502 308.838C449.161 309.069 449.826 309.307 450.485 309.559C450.676 309.629 450.873 309.699 451.064 309.776C451.868 310.07 452.671 310.371 453.474 310.686C454.258 310.987 455.042 311.295 455.819 311.603C456.359 311.82 456.899 312.03 457.432 312.254C458.031 312.499 458.631 312.744 459.223 312.996C460.08 313.353 460.942 313.717 461.798 314.088C462.589 314.425 463.372 314.768 464.162 315.125C464.307 315.188 464.459 315.251 464.604 315.321C465.289 315.622 465.973 315.937 466.652 316.252C467.093 316.448 467.528 316.651 467.962 316.854C469.859 317.736 471.753 318.648 473.645 319.591H473.652C474.837 320.186 476.042 320.753 477.254 321.292C477.537 321.418 477.821 321.544 478.11 321.663C478.591 321.88 479.078 322.083 479.566 322.293C479.882 322.426 480.198 322.559 480.521 322.685C480.988 322.881 481.462 323.07 481.936 323.252C482.437 323.448 482.931 323.645 483.438 323.827C483.616 323.897 483.793 323.96 483.978 324.03C484.564 324.24 485.15 324.45 485.743 324.653C485.802 324.674 485.861 324.695 485.927 324.716C486.546 324.926 487.165 325.136 487.791 325.332C487.84 325.351 487.891 325.368 487.942 325.381C488.614 325.598 489.299 325.808 489.977 326.011C490.978 326.305 491.986 326.585 492.993 326.844C493.178 326.893 493.362 326.942 493.546 326.984C494.086 327.124 494.62 327.257 495.16 327.383C495.733 327.523 496.312 327.649 496.885 327.775C497.465 327.901 498.044 328.027 498.617 328.139C498.927 328.202 499.236 328.265 499.539 328.321L500.349 328.468C500.909 328.573 501.469 328.664 502.035 328.762C502.05 328.761 502.066 328.764 502.081 328.769C502.72 328.874 503.352 328.972 503.991 329.056C504.603 329.147 505.216 329.224 505.828 329.301C505.953 329.315 506.085 329.329 506.217 329.343C506.724 329.406 507.231 329.469 507.738 329.518C507.883 329.532 508.028 329.546 508.172 329.56C508.673 329.609 509.173 329.658 509.674 329.693C509.774 329.707 509.876 329.714 509.977 329.714C510.425 329.756 510.872 329.791 511.32 329.812C511.636 329.84 511.946 329.854 512.262 329.875C512.427 329.882 512.585 329.889 512.749 329.896C513.184 329.924 513.619 329.938 514.06 329.952C514.593 329.973 515.127 329.987 515.653 330.001C516.292 330.015 516.938 330.022 517.576 330.022H517.59C518.215 330.022 518.847 330.015 519.473 330.001H519.71L520.402 329.98C520.757 329.973 521.113 329.959 521.462 329.945C522.133 329.917 522.799 329.882 523.464 329.84C523.727 329.826 523.997 329.805 524.261 329.791C524.379 329.784 524.504 329.77 524.623 329.763C525.038 329.735 525.446 329.707 525.861 329.672C526.289 329.637 526.723 329.595 527.152 329.546C527.705 329.49 528.258 329.427 528.811 329.364C529.246 329.315 529.68 329.259 530.108 329.203C530.166 329.198 530.223 329.188 530.28 329.175C530.694 329.126 531.109 329.07 531.518 329.007C532.005 328.937 532.486 328.86 532.966 328.783C533.019 328.776 533.065 328.769 533.118 328.762C533.948 328.622 534.784 328.482 535.62 328.321C536.496 328.153 537.372 327.971 538.241 327.782C538.564 327.712 538.88 327.635 539.203 327.565C539.381 327.523 539.565 327.488 539.736 327.446C540.006 327.383 540.27 327.32 540.533 327.25C540.579 327.243 540.632 327.229 540.678 327.222C541.047 327.138 541.409 327.04 541.778 326.942C542.515 326.753 543.24 326.557 543.964 326.347C544.287 326.263 544.609 326.172 544.919 326.081C545.011 326.053 545.103 326.025 545.189 325.997C546.526 325.598 547.852 325.175 549.166 324.73C549.746 324.534 550.319 324.331 550.892 324.114C552.123 323.666 553.344 323.194 554.553 322.699C554.876 322.573 555.199 322.433 555.521 322.3C555.995 322.097 556.47 321.894 556.937 321.691C557.359 321.502 557.78 321.313 558.208 321.117C558.419 321.026 558.63 320.928 558.84 320.83C559.473 320.536 560.105 320.235 560.73 319.934C561.152 319.724 561.567 319.521 561.981 319.311C562.64 318.975 563.292 318.632 563.944 318.289C564.109 318.198 564.267 318.107 564.425 318.023C564.84 317.799 565.254 317.568 565.676 317.344C566.341 316.966 567.006 316.588 567.665 316.196C567.889 316.07 568.106 315.937 568.33 315.804C569.054 315.37 569.772 314.929 570.483 314.481C572.057 313.479 573.609 312.434 575.139 311.344C575.521 311.078 575.903 310.798 576.278 310.525C576.989 310.007 577.688 309.475 578.386 308.943C578.458 308.887 578.524 308.831 578.596 308.782C578.945 308.509 579.294 308.236 579.643 307.956C580.368 307.375 581.086 306.787 581.803 306.185C581.817 306.178 581.836 306.157 581.856 306.143C582.179 305.87 582.501 305.597 582.818 305.324C583.799 304.476 584.767 303.615 585.715 302.726C586.183 302.299 586.644 301.858 587.098 301.417C587.44 301.088 587.783 300.759 588.119 300.423C588.797 299.744 589.462 299.072 590.121 298.386C590.45 298.05 590.773 297.7 591.102 297.35C591.425 297 591.754 296.65 592.077 296.293C592.188 296.174 592.3 296.048 592.412 295.922C592.742 295.551 593.071 295.172 593.4 294.801C593.683 294.479 593.96 294.143 594.243 293.807C594.717 293.247 595.198 292.687 595.666 292.12C595.69 292.088 595.717 292.058 595.745 292.029C595.771 291.994 595.797 291.966 595.817 291.938H595.81C605.383 280.171 612.495 266.377 616.676 251.469C620.858 236.561 622.014 220.878 620.067 205.46C618.12 190.041 613.115 175.238 605.384 162.03C597.652 148.821 587.37 137.509 575.218 128.842L575.218 128.842Z" fill="#6C63FF"/>
<g opacity="0.15">
<path opacity="0.15" d="M80.3827 46C81.6398 50.9334 83.5311 55.647 86 60C81.8667 56.1208 78.1738 51.7145 75 46.8755C76.7827 46.5071 78.577 46.2152 80.3827 46Z" fill="black"/>
<path opacity="0.15" d="M15.8503 123.816C10.8809 126.653 6.23453 130.07 2 134C9.1499 125.156 14.3755 114.792 17.3144 103.626C17.3499 103.491 17.3858 103.356 17.4205 103.222L17.5203 102.842C21.052 89.5145 27.9045 77.4075 37.377 67.759L38.1217 67L38.6469 67.938C41.5507 73.1026 45.0256 77.8918 49 82.2065C42.91 100.181 31.0595 115.142 15.8503 123.816Z" fill="black"/>
<path opacity="0.15" d="M50.3734 76.0205L50.2731 76.3997C50.2383 76.5337 50.2023 76.6685 50.1666 76.8023C49.9696 77.5396 49.7602 78.2714 49.5442 79C47.4108 73.2588 45.9126 67.2842 45.0785 61.1913L45 60.6743L45.4091 60.3705C50.541 56.5392 56.1147 53.3912 62 51C56.7159 58.5509 52.778 67.0252 50.3734 76.0205Z" fill="black"/>
<path opacity="0.15" d="M-16.6721 150.961C-12.3617 148.457 -8.3274 145.452 -4.64377 142C-12.002 151.093 -17.2765 161.871 -20.0539 173.489C-22.8313 185.107 -23.0362 197.25 -20.6526 208.966C-18.2689 220.682 -13.3614 231.654 -6.31467 241.02C0.732087 250.387 9.72671 257.894 19.9643 262.954L20.2971 263.118L20.6291 262.958C26.1588 260.307 31.9891 258.428 37.9743 257.368C34.2385 259.388 30.7563 261.897 27.6092 264.837L26.5445 265.814L27.8801 266.282C29.0329 266.686 30.1862 267.059 31.3069 267.389C37.8928 269.336 44.7014 270.303 51.5379 270.262C82.5994 270.051 113.902 277.673 144.576 292.915C149.836 295.525 155.292 297.666 160.888 299.314C185.272 306.52 211.304 303.928 234 292.034C221.204 307.741 204.473 319.273 185.749 325.29C167.025 331.308 147.076 331.564 128.221 326.03C122.625 324.381 117.169 322.241 111.909 319.631C81.235 304.388 49.9324 296.766 18.8709 296.977C12.0345 297.018 5.22583 296.051 -1.36002 294.105C-2.48079 293.774 -3.63402 293.402 -4.7868 292.997L-6.12248 292.529L-5.05779 291.552C-1.91064 288.612 1.57158 286.103 5.30731 284.084C-0.677833 285.143 -6.50818 287.022 -12.0378 289.674L-12.3699 289.833L-12.7026 289.67C-24.9967 283.596 -35.4589 274.017 -42.9218 261.999C-50.3846 249.982 -54.5546 236 -54.9663 221.614C-55.3779 207.228 -52.0152 193.003 -45.2532 180.528C-38.4913 168.052 -28.5962 157.816 -16.672 150.961L-16.6721 150.961Z" fill="black"/>
</g>
</g>
<defs>
<clipPath id="clip0">
<rect width="621" height="557" fill="white"/>
</clipPath>
</defs>
</svg>
